<svg width="25" height="26" viewBox="0 0 25 26" fill="none" xmlns="http://www.w3.org/2000/svg">
<path d="M23.5568 18.537V7.46301C23.5559 7.30305 23.512 7.14614 23.4295 7.00811C23.347 6.87008 23.2289 6.75581 23.087 6.67682L13.0036 1.11737C12.8678 1.04048 12.7136 1 12.5568 1C12.3999 1 12.2458 1.04048 12.1099 1.11737L2.02655 6.67682C1.88464 6.75581 1.76649 6.87008 1.68401 7.00811C1.60153 7.14614 1.55764 7.30305 1.55676 7.46301V18.537C1.55764 18.697 1.60153 18.8539 1.68401 18.9919C1.76649 19.1299 1.88464 19.2442 2.02655 19.3232L12.1099 24.8826C12.2458 24.9595 12.3999 25 12.5568 25C12.7136 25 12.8678 24.9595 13.0036 24.8826L23.087 19.3232C23.2289 19.2442 23.347 19.1299 23.4295 18.9919C23.512 18.8539 23.5559 18.697 23.5568 18.537V18.537Z" stroke="#1C1F35" stroke-width="2" stroke-linecap="round" stroke-linejoin="round"/>
<path d="M18.5568 16V10.0853L7.55676 4" stroke="#1C1F35" stroke-width="2" stroke-linecap="round" stroke-linejoin="round"/>
<path d="M23.5568 7L12.6611 13L1.55676 7" stroke="#1C1F35" stroke-width="2" stroke-linecap="round" stroke-linejoin="round"/>
<path d="M12.5568 13V25" stroke="#1C1F35" stroke-width="2" stroke-linecap="round" stroke-linejoin="round"/>
</svg>
