<svg width="33" height="22" viewBox="0 0 33 22" fill="none" xmlns="http://www.w3.org/2000/svg">
<path d="M13.2686 0.824464C13.7696 0.824464 14.1991 1.00341 14.557 1.36129C14.8433 1.71918 14.9865 2.14864 14.9865 2.64969C14.9865 3.22231 14.8791 3.79492 14.6644 4.36754L8.97396 19.0767C8.61608 19.7925 8.25819 20.3651 7.9003 20.7945C7.47084 21.2956 6.79085 21.5461 5.86035 21.5461L2.31727 21.5461C1.74465 21.5461 1.31519 21.3314 1.02888 20.9019C0.670994 20.4724 0.563629 19.8998 0.706784 19.184L3.06884 3.93807C3.14041 3.07915 3.42672 2.32759 3.92776 1.68339C4.42881 1.11077 5.18037 0.824463 6.18245 0.824463L13.2686 0.824464ZM30.4472 0.824465C30.9482 0.824465 31.3777 1.00341 31.7356 1.36129C32.0219 1.71918 32.165 2.14865 32.165 2.64969C32.165 3.22231 32.0576 3.79493 31.8429 4.36754L26.1525 19.0767C25.7946 19.7925 25.401 20.3651 24.9715 20.7945C24.542 21.2956 23.8978 21.5461 23.0389 21.5461H19.4958C18.9232 21.5461 18.4937 21.3314 18.2074 20.9019C17.8496 20.4724 17.7422 19.8998 17.8853 19.184L20.2474 3.93808C20.319 3.07915 20.6053 2.32759 21.1063 1.68339C21.6074 1.11077 22.3231 0.824464 23.2536 0.824464L30.4472 0.824465Z" fill="#091242"/>
</svg>
